<?xml version="1.0" encoding="utf-8"?>
<!-- Generator: Adobe Illustrator 16.0.0, SVG Export Plug-In . SVG Version: 6.00 Build 0)  -->
<!DOCTYPE svg PUBLIC "-//W3C//DTD SVG 1.1//EN" "http://www.w3.org/Graphics/SVG/1.1/DTD/svg11.dtd">
<svg version="1.1" id="Capa_1" xmlns="http://www.w3.org/2000/svg" xmlns:xlink="http://www.w3.org/1999/xlink" x="0px" y="0px"
	 width="756.85px" height="510.24px" viewBox="0 0 756.85 510.24" enable-background="new 0 0 756.85 510.24" xml:space="preserve">
<g>
	<path fill="#E2231A" d="M556.225,58.619c13.811,35.483,29.538,107.601-7.479,186.815c-0.384,0.959,0.959,1.918,2.301,0.959
		c44.115-28.962,82.667-84.201,95.326-129.658c-43.923-22.441-70.392-45.841-86.311-60.609
		C557.951,54.208,555.266,56.317,556.225,58.619"/>
	<path fill="#821642" d="M755.123,152.027c-36.634-5.754-72.117-17.838-95.325-28.771c-13.426,35.1-39.319,72.885-66.555,98.778
		c-1.535,1.343-0.192,3.453,2.109,1.727c57.924-40.087,118.342-59.267,159.771-67.323
		C757.425,155.863,757.425,152.602,755.123,152.027"/>
	<path fill="#404040" d="M33.949,307.194c-12.659-4.22-16.303-6.33-16.303-11.7c0-4.795,5.37-8.631,12.275-8.631
		c6.713,0,13.618,1.918,21.098,5.946c0.192,0,0.384,0.191,0.384,0.191c0.192,0,0.384,0,0.384-0.191
		c0.192-0.192,0.383-0.384,0.575-0.768l2.11-13.043c0-0.383-0.192-0.767-0.575-0.959c-6.905-3.068-15.344-4.795-23.592-4.795
		c-16.303,0-27.811,9.782-27.811,23.976c0,13.042,8.631,18.413,25.893,24.358c11.316,3.836,15.152,6.138,15.152,12.275
		c0,5.946-5.754,9.974-14.769,9.974c-7.48,0-17.454-2.685-25.51-6.904c-0.192,0-0.192-0.192-0.384-0.192s-0.383,0-0.383,0
		c-0.192,0.192-0.384,0.384-0.576,0.768L0,350.158c0,0.383,0.192,0.767,0.575,0.959c9.207,3.836,19.18,6.138,27.812,6.138
		c18.029,0,30.305-10.166,30.305-25.318C58.691,318.318,50.06,312.757,33.949,307.194"/>
	<path fill="#404040" d="M140.591,274.204h-14.385c-0.575,0-0.959,0.384-0.959,0.959v48.526c0,13.042-6.138,19.947-17.646,19.947
		c-11.316,0-17.454-7.097-17.454-20.14v-48.334c0-0.575-0.384-0.959-0.959-0.959H74.995c-0.576,0-0.959,0.384-0.959,0.959v48.91
		c0,21.098,12.467,33.564,33.374,33.564c21.29,0,34.141-12.851,34.141-34.141v-48.334
		C141.55,274.588,141.166,274.204,140.591,274.204"/>
	<path fill="#404040" d="M190.267,274.204h-26.085c-0.575,0-0.959,0.384-0.959,0.959v79.981c0,0.575,0.384,0.959,0.959,0.959h14.193
		c0.576,0,0.959-0.384,0.959-0.959v-29.729h9.207c19.756,0,31.264-9.397,31.264-25.893
		C219.805,283.986,208.488,274.204,190.267,274.204 M188.541,311.798h-9.207v-23.592h9.398c6.905,0,15.152,2.109,15.152,11.892
		C204.077,307.962,198.898,311.798,188.541,311.798"/>
	<path fill="#404040" d="M287.319,341.719h-35.675v-20.906h29.537c0.192,0,0.576-0.192,0.768-0.384
		c0.191-0.191,0.191-0.575,0.191-0.768l-2.11-12.467c0-0.384-0.383-0.768-0.959-0.768h-27.427v-17.838h34.524
		c0.576,0,0.959-0.383,0.959-0.959v-12.467c0-0.575-0.383-0.959-0.959-0.959h-49.676c-0.576,0-0.959,0.384-0.959,0.959v79.981
		c0,0.575,0.383,0.959,0.959,0.959h50.827c0.576,0,0.959-0.384,0.959-0.959v-12.467
		C288.278,342.103,287.703,341.719,287.319,341.719"/>
	<path fill="#404040" d="M346.202,322.922c10.357-4.027,16.111-12.275,16.111-23.208c0-15.92-11.7-25.51-31.072-25.51h-24.743
		c-0.575,0-0.959,0.384-0.959,0.959v79.981c0,0.575,0.384,0.959,0.959,0.959h14.193c0.576,0,0.959-0.384,0.959-0.959v-29.921h7.289
		l22.057,31.455c0.192,0.192,0.384,0.384,0.767,0.384h0.192l14.769-3.261c0.383,0,0.575-0.383,0.767-0.575
		c0.192-0.384,0-0.575-0.192-0.959L346.202,322.922z M346.202,299.905c0,7.864-5.371,12.275-15.152,12.275h-9.398v-23.783h9.398
		C337.955,288.397,346.202,290.507,346.202,299.905"/>
	<path fill="#404040" d="M448.433,274.396h-14.386c-0.383,0-0.767,0.192-0.959,0.576l-22.44,59.842l-22.057-60.033
		c-0.192-0.385-0.576-0.576-0.959-0.576h-15.537c-0.192,0-0.575,0.191-0.575,0.384c-0.192,0.192-0.192,0.575,0,0.767l31.263,79.982
		c0.192,0.383,0.576,0.575,0.959,0.575h13.234c0.384,0,0.768-0.192,0.959-0.575l31.647-79.79c0.192-0.384,0-0.575-0.191-0.959
		C449.008,274.396,448.624,274.396,448.433,274.396"/>
	<path fill="#404040" d="M479.313,274.204h-14.385c-0.576,0-0.959,0.384-0.959,0.959v79.981c0,0.575,0.383,0.959,0.959,0.959h14.385
		c0.575,0,0.959-0.384,0.959-0.959v-79.981C480.271,274.588,479.888,274.204,479.313,274.204"/>
	<path fill="#404040" d="M558.143,341.719h-35.675v-20.906h29.537c0.192,0,0.576-0.192,0.768-0.384s0.191-0.575,0.191-0.768
		l-2.109-12.467c0-0.384-0.384-0.768-0.959-0.768h-27.428v-17.838h34.524c0.575,0,0.959-0.383,0.959-0.959v-12.467
		c0-0.575-0.384-0.959-0.959-0.959h-49.677c-0.575,0-0.959,0.384-0.959,0.959v79.981c0,0.575,0.384,0.959,0.959,0.959h50.827
		c0.576,0,0.96-0.384,0.96-0.959v-12.467C559.103,342.103,558.526,341.719,558.143,341.719"/>
	<path fill="#404040" d="M687.993,341.91h-29.346v-66.747c0-0.575-0.384-0.959-0.959-0.959h-14.193
		c-0.575,0-0.959,0.384-0.959,0.959v79.981c0,0.575,0.384,0.959,0.959,0.959h46.607c0.191,0,0.575-0.191,0.768-0.384
		c0.191-0.191,0.191-0.575,0.191-0.767l-2.109-12.275C688.76,342.294,688.376,341.91,687.993,341.91"/>
	<path fill="#404040" d="M755.891,341.719h-35.675v-20.906h29.537c0.191,0,0.575-0.192,0.768-0.384
		c0.191-0.191,0.191-0.575,0.191-0.768l-2.109-12.467c0-0.384-0.384-0.768-0.959-0.768h-27.428v-17.838h34.524
		c0.575,0,0.959-0.383,0.959-0.959v-12.467c0-0.575-0.384-0.959-0.959-0.959h-49.677c-0.576,0-0.959,0.384-0.959,0.959v79.981
		c0,0.575,0.383,0.959,0.959,0.959h50.827c0.575,0,0.959-0.384,0.959-0.959v-12.467C756.85,342.103,756.466,341.719,755.891,341.719
		"/>
	<path fill="#404040" d="M625.657,341.91h-29.346v-66.747c0-0.575-0.384-0.959-0.959-0.959h-14.193
		c-0.575,0-0.959,0.384-0.959,0.959v79.981c0,0.575,0.384,0.959,0.959,0.959h46.607c0.192,0,0.576-0.191,0.768-0.384
		c0.191-0.191,0.191-0.575,0.191-0.767l-2.109-12.275C626.425,342.294,626.041,341.91,625.657,341.91"/>
</g>
<g>
	<path fill="#404043" d="M518.145,440.47c-5.413,0-9.954-1.164-14.029-3.027l1.456-8.499c4.133,2.212,8.731,3.726,12.748,3.726
		c2.853,0,4.832-1.223,4.832-3.609c0-2.27-1.165-3.317-6.812-5.472c-8.033-3.085-11.525-5.705-11.525-12.341
		c0-7.742,6.054-11.875,13.737-11.875c5.239,0,8.616,0.989,12.108,2.678l-1.514,8.382c-3.608-2.096-7.393-3.26-10.478-3.26
		c-3.027,0-4.482,1.281-4.482,3.144c0,2.038,1.105,3.027,6.112,4.948c8.731,3.202,12.225,6.229,12.225,12.632
		C532.523,436.628,526.12,440.47,518.145,440.47z"/>
	<path fill="#404043" d="M537.94,440.004v-40.166h25.031v7.975h-15.251v7.335h11.643l1.28,8.208h-12.923v8.674h15.775v7.975H537.94z
		"/>
	<path fill="#404043" d="M587.424,440.761c-12.748,0-19.792-8.383-19.792-20.782c0-12.457,7.626-20.897,20.025-20.897
		c4.948,0,9.081,1.164,12.282,2.969l-1.339,8.673c-3.026-1.921-6.578-3.434-10.711-3.434c-6.927,0-10.304,5.122-10.304,12.632
		c0,7.567,3.493,12.864,10.42,12.864c2.213,0,3.784-0.407,5.414-1.28v-7.16h-6.985l-1.164-7.393h16.823v19.559
		C597.902,439.247,592.954,440.761,587.424,440.761z"/>
	<path fill="#404043" d="M625.033,440.645c-9.838,0-16.706-5.298-16.706-16.532v-24.274h10.012v24.216
		c0,5.181,2.329,8.208,6.812,8.208c4.54,0,6.811-2.969,6.811-8.092v-24.332h10.013v24.216
		C641.974,435.23,634.755,440.645,625.033,440.645z"/>
	<path fill="#404043" d="M680.455,438.724l-10.187,1.688l-8.79-14.203h-2.736v13.796h-9.896v-40.166h14.029
		c9.722,0,15.427,4.424,15.427,12.689c0,5.53-2.678,9.314-7.451,11.41L680.455,438.724z M661.886,407.347h-3.202v11.701h3.086
		c4.249,0,6.752-2.096,6.752-5.938C668.521,409.384,666.193,407.347,661.886,407.347z"/>
	<path fill="#404043" d="M702.289,440.761c-11.526,0-19.094-8.383-19.094-20.782c0-12.457,7.567-20.897,19.21-20.897
		s19.152,8.382,19.152,20.781S713.99,440.761,702.289,440.761z M702.348,406.881c-5.821,0-9.198,5.064-9.198,13.04
		c0,7.975,3.435,13.039,9.198,13.039c5.821,0,9.197-5.064,9.197-13.039C711.545,411.945,708.169,406.881,702.348,406.881z"/>
	<path fill="#404043" d="M739.84,440.47c-5.413,0-9.954-1.164-14.029-3.027l1.456-8.499c4.133,2.212,8.731,3.726,12.748,3.726
		c2.853,0,4.832-1.223,4.832-3.609c0-2.27-1.165-3.317-6.812-5.472c-8.033-3.085-11.525-5.705-11.525-12.341
		c0-7.742,6.054-11.875,13.737-11.875c5.239,0,8.616,0.989,12.108,2.678l-1.514,8.382c-3.608-2.096-7.393-3.26-10.478-3.26
		c-3.027,0-4.482,1.281-4.482,3.144c0,2.038,1.105,3.027,6.112,4.948c8.731,3.202,12.225,6.229,12.225,12.632
		C754.219,436.628,747.815,440.47,739.84,440.47z"/>
</g>
</svg>
